<?xml version="1.0" standalone="no"?>
<!DOCTYPE svg PUBLIC "-//W3C//DTD SVG 20010904//EN"
 "http://www.w3.org/TR/2001/REC-SVG-20010904/DTD/svg10.dtd">
<svg version="1.0" xmlns="http://www.w3.org/2000/svg"
 width="512.000000pt" height="512.000000pt" viewBox="0 0 512.000000 512.000000"
 preserveAspectRatio="xMidYMid meet">

<g transform="translate(0.000000,512.000000) scale(0.100000,-0.100000)"
fill="#000000" stroke="none">
<path d="M415 5110 c-22 -5 -60 -16 -85 -25 -150 -53 -285 -212 -319 -373 -8
-38 -11 -659 -11 -2155 0 -2299 -4 -2151 57 -2277 58 -121 214 -240 351 -269
75 -16 4229 -16 4304 0 189 39 358 208 397 397 16 75 16 4229 0 4304 -35 167
-166 316 -335 380 l-59 23 -2130 1 c-1172 1 -2148 -2 -2170 -6z m2975 -880
c137 -34 223 -81 315 -174 169 -170 244 -400 232 -711 -12 -293 -66 -499 -289
-1095 -77 -206 -148 -408 -159 -449 -21 -83 -26 -251 -8 -314 42 -154 181 -84
543 276 93 93 180 176 192 184 60 39 98 -27 99 -172 0 -93 -3 -105 -36 -180
-103 -233 -315 -449 -570 -580 -184 -94 -354 -129 -514 -105 -245 36 -348 182
-348 495 0 172 41 379 147 730 25 82 44 150 43 151 -13 13 -947 32 -947 19 0
-3 -7 -49 -15 -103 -27 -184 -45 -398 -55 -677 -6 -154 -15 -307 -21 -340 -21
-122 -78 -182 -244 -261 -129 -61 -171 -74 -243 -74 -160 0 -227 125 -225 420
2 228 40 476 124 797 59 225 56 204 23 198 -16 -3 -81 -12 -144 -20 -63 -8
-164 -21 -225 -30 -129 -17 -194 -19 -229 -5 -51 19 -27 115 50 194 125 129
347 233 630 297 l102 23 62 145 c298 697 675 1154 1098 1332 116 48 189 59
367 55 120 -3 182 -10 245 -26z"/>
<path d="M2910 3650 c-25 -4 -72 -17 -104 -29 -237 -84 -442 -345 -575 -735
-23 -65 -41 -119 -41 -121 0 -6 345 -15 659 -17 l344 -2 14 44 c105 349 121
585 47 731 -57 113 -175 158 -344 129z"/>
</g>
</svg>
